<svg xmlns="http://www.w3.org/2000/svg" viewBox="0 0 512 512" width="512" height="512">
  <rect width="512" height="512" fill="#020617" rx="115" />

  <line x1="140" y1="130" x2="372" y2="130" stroke="#475569" stroke-width="24" stroke-linecap="round" />
  <line x1="140" y1="382" x2="372" y2="382" stroke="#475569" stroke-width="24" stroke-linecap="round" />

  <polyline points="160,130 256,252 352,130" stroke="#64748b" stroke-width="20" stroke-linecap="round" stroke-linejoin="round" fill="none" />
  <polyline points="160,382 256,260 352,382" stroke="#64748b" stroke-width="20" stroke-linecap="round" stroke-linejoin="round" fill="none" />

  <rect x="244" y="206" width="24" height="24" rx="6" fill="#10b981" />
  <rect x="224" y="176" width="24" height="24" rx="6" fill="#059669" />
  <rect x="264" y="176" width="24" height="24" rx="6" fill="#10b981" />
  <rect x="204" y="146" width="24" height="24" rx="6" fill="#10b981" opacity="0.8" />
  <rect x="244" y="146" width="24" height="24" rx="6" fill="#059669" />
  <rect x="284" y="146" width="24" height="24" rx="6" fill="#10b981" opacity="0.8" />

  <rect x="246" y="266" width="20" height="20" rx="5" fill="#34d399" />
  <rect x="248" y="296" width="16" height="16" rx="4" fill="#10b981" opacity="0.7" />

  <rect x="244" y="346" width="24" height="24" rx="6" fill="#10b981" />
  <rect x="224" y="316" width="24" height="24" rx="6" fill="#059669" />
  <rect x="264" y="316" width="24" height="24" rx="6" fill="#059669" />
</svg>
